<svg version="1.1" xmlns="http://www.w3.org/2000/svg" xmlns:xlink="http://www.w3.org/1999/xlink" xmlns:inkscape="http://www.inkscape.org/namespaces/inkscape" width="600" height="600" viewBox="-36.500 -53.694 57.000 53.694" fill="none" stroke="#00f" stroke-width="0.250"><polyline fill="none" points="0,0 1,0 1.500,-0.866 0.500,-0.866 -0.000,-1.732 1.000,-1.732 2.000,-1.732 2.500,-0.866 3.500,-0.866 4.000,-1.732 4.500,-2.598 3.500,-2.598 3.000,-1.732 2.500,-2.598 3.000,-3.464 2.500,-4.330 1.500,-4.330 0.500,-4.330 1.000,-3.464 2.000,-3.464 1.500,-2.598 0.500,-2.598 -0.000,-3.464 -1.000,-3.464 -0.500,-2.598 -1.000,-1.732 -1.500,-2.598 -2.000,-3.464 -1.500,-4.330 -0.500,-4.330 -0.000,-5.196 -1.000,-5.196 -1.500,-6.062 -0.500,-6.062 0.500,-6.062 1.000,-5.196 2.000,-5.196 2.500,-6.062 1.500,-6.062 1.000,-6.928 2.000,-6.928 3.000,-6.928 3.500,-6.062 3.000,-5.196 3.500,-4.330 4.000,-3.464 4.500,-4.330 4.000,-5.196 5.000,-5.196 5.500,-4.330 6.500,-4.330 7.000,-5.196 6.000,-5.196 5.500,-6.062 6.500,-6.062 7.500,-6.062 8.000,-5.196 9.000,-5.196 9.500,-6.062 10.000,-6.928 9.000,-6.928 8.500,-6.062 8.000,-6.928 8.500,-7.794 9.500,-7.794 10.000,-8.660 10.500,-9.526 9.500,-9.526 9.000,-8.660 8.500,-9.526 9.000,-10.392 8.500,-11.258 7.500,-11.258 6.500,-11.258 7.000,-10.392 8.000,-10.392 7.500,-9.526 6.500,-9.526 6.000,-8.660 6.500,-7.794 7.000,-8.660 8.000,-8.660 7.500,-7.794 7.000,-6.928 6.000,-6.928 5.500,-7.794 4.500,-7.794 5.000,-6.928 4.500,-6.062 4.000,-6.928 3.500,-7.794 4.000,-8.660 5.000,-8.660 5.500,-9.526 6.000,-10.392 5.000,-10.392 4.500,-9.526 4.000,-10.392 4.500,-11.258 4.000,-12.124 3.000,-12.124 3.500,-11.258 3.000,-10.392 2.500,-11.258 2.000,-12.124 2.500,-12.990 2.000,-13.856 1.000,-13.856 -0.000,-13.856 0.500,-12.990 1.500,-12.990 1.000,-12.124 -0.000,-12.124 -0.500,-12.990 -1.500,-12.990 -2.500,-12.990 -2.000,-12.124 -1.000,-12.124 -1.500,-11.258 -2.500,-11.258 -3.000,-10.392 -2.500,-9.526 -2.000,-8.660 -1.500,-9.526 -2.000,-10.392 -1.000,-10.392 -0.500,-9.526 0.500,-9.526 1.000,-10.392 -0.000,-10.392 -0.500,-11.258 0.500,-11.258 1.500,-11.258 2.000,-10.392 1.500,-9.526 2.000,-8.660 2.500,-9.526 3.500,-9.526 3.000,-8.660 2.500,-7.794 1.500,-7.794 1.000,-8.660 -0.000,-8.660 -1.000,-8.660 -0.500,-7.794 0.500,-7.794 -0.000,-6.928 -1.000,-6.928 -1.500,-7.794 -2.500,-7.794 -2.000,-6.928 -2.500,-6.062 -3.000,-6.928 -3.500,-7.794 -3.000,-8.660 -3.500,-9.526 -4.500,-9.526 -5.500,-9.526 -5.000,-8.660 -4.000,-8.660 -4.500,-7.794 -5.500,-7.794 -6.000,-6.928 -5.500,-6.062 -5.000,-5.196 -4.500,-6.062 -5.000,-6.928 -4.000,-6.928 -3.500,-6.062 -4.000,-5.196 -3.500,-4.330 -3.000,-5.196 -2.000,-5.196 -2.500,-4.330 -3.000,-3.464 -4.000,-3.464 -4.500,-4.330 -5.500,-4.330 -5.000,-3.464 -5.500,-2.598 -6.000,-3.464 -6.500,-4.330 -6.000,-5.196 -6.500,-6.062 -7.500,-6.062 -7.000,-5.196 -7.500,-4.330 -8.000,-5.196 -8.500,-6.062 -8.000,-6.928 -7.000,-6.928 -6.500,-7.794 -6.000,-8.660 -7.000,-8.660 -7.500,-7.794 -8.000,-8.660 -7.500,-9.526 -6.500,-9.526 -6.000,-10.392 -7.000,-10.392 -7.500,-11.258 -6.500,-11.258 -5.500,-11.258 -5.000,-10.392 -4.000,-10.392 -3.500,-11.258 -3.000,-12.124 -4.000,-12.124 -4.500,-11.258 -5.000,-12.124 -4.500,-12.990 -5.000,-13.856 -6.000,-13.856 -7.000,-13.856 -6.500,-12.990 -5.500,-12.990 -6.000,-12.124 -7.000,-12.124 -7.500,-12.990 -8.500,-12.990 -8.000,-12.124 -8.500,-11.258 -9.000,-12.124 -9.500,-12.990 -9.000,-13.856 -8.000,-13.856 -7.500,-14.722 -8.500,-14.722 -9.000,-15.588 -8.000,-15.588 -7.000,-15.588 -6.500,-14.722 -5.500,-14.722 -5.000,-15.588 -6.000,-15.588 -6.500,-16.454 -5.500,-16.454 -4.500,-16.454 -4.000,-15.588 -4.500,-14.722 -4.000,-13.856 -3.500,-12.990 -3.000,-13.856 -3.500,-14.722 -2.500,-14.722 -2.000,-13.856 -1.000,-13.856 -0.500,-14.722 -1.500,-14.722 -2.000,-15.588 -1.000,-15.588 -0.000,-15.588 0.500,-14.722 1.500,-14.722 2.000,-15.588 2.500,-16.454 1.500,-16.454 1.000,-15.588 0.500,-16.454 1.000,-17.321 0.500,-18.187 -0.500,-18.187 -1.500,-18.187 -1.000,-17.321 -0.000,-17.321 -0.500,-16.454 -1.500,-16.454 -2.000,-17.321 -3.000,-17.321 -2.500,-16.454 -3.000,-15.588 -3.500,-16.454 -4.000,-17.321 -3.500,-18.187 -2.500,-18.187 -2.000,-19.053 -3.000,-19.053 -3.500,-19.919 -2.500,-19.919 -1.500,-19.919 -1.000,-19.053 -0.000,-19.053 0.500,-19.919 -0.500,-19.919 -1.000,-20.785 -0.000,-20.785 1.000,-20.785 1.500,-19.919 1.000,-19.053 1.500,-18.187 2.000,-17.321 2.500,-18.187 2.000,-19.053 3.000,-19.053 3.500,-18.187 3.000,-17.321 3.500,-16.454 4.000,-17.321 5.000,-17.321 4.500,-16.454 4.000,-15.588 3.000,-15.588 2.500,-14.722 3.000,-13.856 3.500,-12.990 4.000,-13.856 3.500,-14.722 4.500,-14.722 5.000,-13.856 4.500,-12.990 5.000,-12.124 5.500,-11.258 6.000,-12.124 5.500,-12.990 6.500,-12.990 7.000,-12.124 8.000,-12.124 8.500,-12.990 9.000,-13.856 8.000,-13.856 7.500,-12.990 7.000,-13.856 7.500,-14.722 7.000,-15.588 6.000,-15.588 6.500,-14.722 6.000,-13.856 5.500,-14.722 5.000,-15.588 5.500,-16.454 6.500,-16.454 7.000,-17.321 6.000,-17.321 5.500,-18.187 6.500,-18.187 7.500,-18.187 8.000,-17.321 7.500,-16.454 8.000,-15.588 8.500,-14.722 9.000,-15.588 8.500,-16.454 9.500,-16.454 10.000,-15.588 11.000,-15.588 11.500,-16.454 10.500,-16.454 10.000,-17.321 11.000,-17.321 12.000,-17.321 12.500,-16.454 13.500,-16.454 14.000,-17.321 14.500,-18.187 13.500,-18.187 13.000,-17.321 12.500,-18.187 13.000,-19.053 12.500,-19.919 11.500,-19.919 10.500,-19.919 11.000,-19.053 12.000,-19.053 11.500,-18.187 10.500,-18.187 10.000,-19.053 9.000,-19.053 9.500,-18.187 9.000,-17.321 8.500,-18.187 8.000,-19.053 8.500,-19.919 9.500,-19.919 10.000,-20.785 9.000,-20.785 8.500,-21.651 9.500,-21.651 10.500,-21.651 11.000,-20.785 12.000,-20.785 12.500,-21.651 11.500,-21.651 11.000,-22.517 12.000,-22.517 13.000,-22.517 13.500,-21.651 13.000,-20.785 13.500,-19.919 14.000,-19.053 14.500,-19.919 14.000,-20.785 15.000,-20.785 15.500,-19.919 16.500,-19.919 17.000,-20.785 16.000,-20.785 15.500,-21.651 16.500,-21.651 17.500,-21.651 18.000,-20.785 19.000,-20.785 19.500,-21.651 20.000,-22.517 19.000,-22.517 18.500,-21.651 18.000,-22.517 18.500,-23.383 19.500,-23.383 20.000,-24.249 20.500,-25.115 19.500,-25.115 19.000,-24.249 18.500,-25.115 19.000,-25.981 18.500,-26.847 17.500,-26.847 16.500,-26.847 17.000,-25.981 18.000,-25.981 17.500,-25.115 16.500,-25.115 16.000,-24.249 16.500,-23.383 17.000,-24.249 18.000,-24.249 17.500,-23.383 17.000,-22.517 16.000,-22.517 15.500,-23.383 14.500,-23.383 15.000,-22.517 14.500,-21.651 14.000,-22.517 13.500,-23.383 14.000,-24.249 15.000,-24.249 15.500,-25.115 16.000,-25.981 15.000,-25.981 14.500,-25.115 14.000,-25.981 14.500,-26.847 15.500,-26.847 16.000,-27.713 15.000,-27.713 14.500,-28.579 15.500,-28.579 16.500,-28.579 17.000,-27.713 18.000,-27.713 18.500,-28.579 19.000,-29.445 18.000,-29.445 17.500,-28.579 17.000,-29.445 17.500,-30.311 18.500,-30.311 19.000,-31.177 19.500,-32.043 18.500,-32.043 18.000,-31.177 17.500,-32.043 18.000,-32.909 17.500,-33.775 16.500,-33.775 15.500,-33.775 16.000,-32.909 17.000,-32.909 16.500,-32.043 15.500,-32.043 15.000,-31.177 15.500,-30.311 16.000,-31.177 17.000,-31.177 16.500,-30.311 16.000,-29.445 15.000,-29.445 14.500,-30.311 13.500,-30.311 14.000,-29.445 13.500,-28.579 13.000,-29.445 12.500,-30.311 13.000,-31.177 14.000,-31.177 14.500,-32.043 15.000,-32.909 14.000,-32.909 13.500,-32.043 13.000,-32.909 13.500,-33.775 13.000,-34.641 12.000,-34.641 12.500,-33.775 12.000,-32.909 11.500,-33.775 11.000,-34.641 11.500,-35.507 11.000,-36.373 10.000,-36.373 9.000,-36.373 9.500,-35.507 10.500,-35.507 10.000,-34.641 9.000,-34.641 8.500,-35.507 7.500,-35.507 6.500,-35.507 7.000,-34.641 8.000,-34.641 7.500,-33.775 6.500,-33.775 6.000,-32.909 6.500,-32.043 7.000,-31.177 7.500,-32.043 7.000,-32.909 8.000,-32.909 8.500,-32.043 9.500,-32.043 10.000,-32.909 9.000,-32.909 8.500,-33.775 9.500,-33.775 10.500,-33.775 11.000,-32.909 10.500,-32.043 11.000,-31.177 11.500,-32.043 12.500,-32.043 12.000,-31.177 11.500,-30.311 10.500,-30.311 10.000,-31.177 9.000,-31.177 8.000,-31.177 8.500,-30.311 9.500,-30.311 9.000,-29.445 8.000,-29.445 7.500,-28.579 8.000,-27.713 8.500,-28.579 9.500,-28.579 9.000,-27.713 8.500,-26.847 7.500,-26.847 7.000,-25.981 7.500,-25.115 8.000,-24.249 8.500,-25.115 8.000,-25.981 9.000,-25.981 9.500,-25.115 10.500,-25.115 11.000,-25.981 11.500,-26.847 10.500,-26.847 10.000,-25.981 9.500,-26.847 10.000,-27.713 11.000,-27.713 11.500,-28.579 10.500,-28.579 10.000,-29.445 11.000,-29.445 12.000,-29.445 12.500,-28.579 12.000,-27.713 12.500,-26.847 13.000,-27.713 14.000,-27.713 13.500,-26.847 13.000,-25.981 12.000,-25.981 11.500,-25.115 12.000,-24.249 12.500,-25.115 13.500,-25.115 13.000,-24.249 12.500,-23.383 11.500,-23.383 11.000,-24.249 10.000,-24.249 9.000,-24.249 9.500,-23.383 10.500,-23.383 10.000,-22.517 9.000,-22.517 8.500,-23.383 7.500,-23.383 8.000,-22.517 7.500,-21.651 7.000,-22.517 6.500,-23.383 7.000,-24.249 6.500,-25.115 5.500,-25.115 4.500,-25.115 5.000,-24.249 6.000,-24.249 5.500,-23.383 4.500,-23.383 4.000,-22.517 4.500,-21.651 5.000,-20.785 5.500,-21.651 5.000,-22.517 6.000,-22.517 6.500,-21.651 6.000,-20.785 6.500,-19.919 7.000,-20.785 8.000,-20.785 7.500,-19.919 7.000,-19.053 6.000,-19.053 5.500,-19.919 4.500,-19.919 5.000,-19.053 4.500,-18.187 4.000,-19.053 3.500,-19.919 4.000,-20.785 3.500,-21.651 2.500,-21.651 3.000,-20.785 2.500,-19.919 2.000,-20.785 1.500,-21.651 2.000,-22.517 3.000,-22.517 3.500,-23.383 4.000,-24.249 3.000,-24.249 2.500,-23.383 2.000,-24.249 2.500,-25.115 3.500,-25.115 4.000,-25.981 3.000,-25.981 2.500,-26.847 3.500,-26.847 4.500,-26.847 5.000,-25.981 6.000,-25.981 6.500,-26.847 7.000,-27.713 6.000,-27.713 5.500,-26.847 5.000,-27.713 5.500,-28.579 6.500,-28.579 7.000,-29.445 7.500,-30.311 6.500,-30.311 6.000,-29.445 5.500,-30.311 6.000,-31.177 5.500,-32.043 4.500,-32.043 3.500,-32.043 4.000,-31.177 5.000,-31.177 4.500,-30.311 3.500,-30.311 3.000,-29.445 3.500,-28.579 4.000,-29.445 5.000,-29.445 4.500,-28.579 4.000,-27.713 3.000,-27.713 2.500,-28.579 1.500,-28.579 2.000,-27.713 1.500,-26.847 1.000,-27.713 0.500,-28.579 1.000,-29.445 2.000,-29.445 2.500,-30.311 3.000,-31.177 2.000,-31.177 1.500,-30.311 1.000,-31.177 1.500,-32.043 1.000,-32.909 -0.000,-32.909 0.500,-32.043 -0.000,-31.177 -0.500,-32.043 -1.000,-32.909 -0.500,-33.775 -1.000,-34.641 -2.000,-34.641 -3.000,-34.641 -2.500,-33.775 -1.500,-33.775 -2.000,-32.909 -3.000,-32.909 -3.500,-32.043 -3.000,-31.177 -2.500,-30.311 -2.000,-31.177 -2.500,-32.043 -1.500,-32.043 -1.000,-31.177 -1.500,-30.311 -1.000,-29.445 -0.500,-30.311 0.500,-30.311 -0.000,-29.445 -0.500,-28.579 -1.500,-28.579 -2.000,-29.445 -3.000,-29.445 -2.500,-28.579 -3.000,-27.713 -3.500,-28.579 -4.000,-29.445 -3.500,-30.311 -4.000,-31.177 -5.000,-31.177 -4.500,-30.311 -5.000,-29.445 -5.500,-30.311 -6.000,-31.177 -5.500,-32.043 -4.500,-32.043 -4.000,-32.909 -3.500,-33.775 -4.500,-33.775 -5.000,-32.909 -5.500,-33.775 -5.000,-34.641 -5.500,-35.507 -6.500,-35.507 -6.000,-34.641 -6.500,-33.775 -7.000,-34.641 -7.500,-35.507 -7.000,-36.373 -7.500,-37.239 -8.500,-37.239 -9.500,-37.239 -9.000,-36.373 -8.000,-36.373 -8.500,-35.507 -9.500,-35.507 -10.000,-36.373 -11.000,-36.373 -12.000,-36.373 -11.500,-35.507 -10.500,-35.507 -11.000,-34.641 -12.000,-34.641 -12.500,-33.775 -12.000,-32.909 -11.500,-32.043 -11.000,-32.909 -11.500,-33.775 -10.500,-33.775 -10.000,-32.909 -9.000,-32.909 -8.500,-33.775 -9.500,-33.775 -10.000,-34.641 -9.000,-34.641 -8.000,-34.641 -7.500,-33.775 -8.000,-32.909 -7.500,-32.043 -7.000,-32.909 -6.000,-32.909 -6.500,-32.043 -7.000,-31.177 -8.000,-31.177 -8.500,-32.043 -9.500,-32.043 -10.500,-32.043 -10.000,-31.177 -9.000,-31.177 -9.500,-30.311 -10.500,-30.311 -11.000,-31.177 -12.000,-31.177 -11.500,-30.311 -12.000,-29.445 -12.500,-30.311 -13.000,-31.177 -12.500,-32.043 -13.000,-32.909 -14.000,-32.909 -15.000,-32.909 -14.500,-32.043 -13.500,-32.043 -14.000,-31.177 -15.000,-31.177 -15.500,-32.043 -16.500,-32.043 -17.500,-32.043 -17.000,-31.177 -16.000,-31.177 -16.500,-30.311 -17.500,-30.311 -18.000,-29.445 -17.500,-28.579 -17.000,-27.713 -16.500,-28.579 -17.000,-29.445 -16.000,-29.445 -15.500,-28.579 -14.500,-28.579 -14.000,-29.445 -15.000,-29.445 -15.500,-30.311 -14.500,-30.311 -13.500,-30.311 -13.000,-29.445 -13.500,-28.579 -13.000,-27.713 -12.500,-28.579 -11.500,-28.579 -12.000,-27.713 -12.500,-26.847 -13.500,-26.847 -14.000,-27.713 -15.000,-27.713 -16.000,-27.713 -15.500,-26.847 -14.500,-26.847 -15.000,-25.981 -16.000,-25.981 -16.500,-25.115 -16.000,-24.249 -15.500,-25.115 -14.500,-25.115 -15.000,-24.249 -15.500,-23.383 -16.500,-23.383 -17.000,-22.517 -16.500,-21.651 -16.000,-20.785 -15.500,-21.651 -16.000,-22.517 -15.000,-22.517 -14.500,-21.651 -15.000,-20.785 -14.500,-19.919 -14.000,-19.053 -13.500,-19.919 -14.000,-20.785 -13.000,-20.785 -12.500,-19.919 -11.500,-19.919 -11.000,-20.785 -10.500,-21.651 -11.500,-21.651 -12.000,-20.785 -12.500,-21.651 -12.000,-22.517 -12.500,-23.383 -13.500,-23.383 -13.000,-22.517 -13.500,-21.651 -14.000,-22.517 -14.500,-23.383 -14.000,-24.249 -13.000,-24.249 -12.500,-25.115 -13.500,-25.115 -14.000,-25.981 -13.000,-25.981 -12.000,-25.981 -11.500,-25.115 -12.000,-24.249 -11.500,-23.383 -11.000,-22.517 -10.500,-23.383 -11.000,-24.249 -10.000,-24.249 -9.500,-23.383 -8.500,-23.383 -8.000,-24.249 -9.000,-24.249 -9.500,-25.115 -8.500,-25.115 -7.500,-25.115 -7.000,-24.249 -6.000,-24.249 -5.500,-25.115 -5.000,-25.981 -6.000,-25.981 -6.500,-25.115 -7.000,-25.981 -6.500,-26.847 -7.000,-27.713 -8.000,-27.713 -9.000,-27.713 -8.500,-26.847 -7.500,-26.847 -8.000,-25.981 -9.000,-25.981 -9.500,-26.847 -10.500,-26.847 -10.000,-25.981 -10.500,-25.115 -11.000,-25.981 -11.500,-26.847 -11.000,-27.713 -10.000,-27.713 -9.500,-28.579 -10.500,-28.579 -11.000,-29.445 -10.000,-29.445 -9.000,-29.445 -8.500,-28.579 -7.500,-28.579 -7.000,-29.445 -8.000,-29.445 -8.500,-30.311 -7.500,-30.311 -6.500,-30.311 -6.000,-29.445 -6.500,-28.579 -6.000,-27.713 -5.500,-26.847 -5.000,-27.713 -5.500,-28.579 -4.500,-28.579 -4.000,-27.713 -4.500,-26.847 -4.000,-25.981 -3.500,-26.847 -2.500,-26.847 -3.000,-25.981 -3.500,-25.115 -4.500,-25.115 -5.000,-24.249 -4.500,-23.383 -4.000,-22.517 -3.500,-23.383 -4.000,-24.249 -3.000,-24.249 -2.500,-23.383 -1.500,-23.383 -1.000,-24.249 -0.500,-25.115 -1.500,-25.115 -2.000,-24.249 -2.500,-25.115 -2.000,-25.981 -1.000,-25.981 -0.500,-26.847 -1.500,-26.847 -2.000,-27.713 -1.000,-27.713 -0.000,-27.713 0.500,-26.847 -0.000,-25.981 0.500,-25.115 1.000,-25.981 2.000,-25.981 1.500,-25.115 1.000,-24.249 -0.000,-24.249 -0.500,-23.383 -0.000,-22.517 0.500,-23.383 1.500,-23.383 1.000,-22.517 0.500,-21.651 -0.500,-21.651 -1.000,-22.517 -2.000,-22.517 -3.000,-22.517 -2.500,-21.651 -1.500,-21.651 -2.000,-20.785 -3.000,-20.785 -3.500,-21.651 -4.500,-21.651 -4.000,-20.785 -4.500,-19.919 -5.000,-20.785 -5.500,-21.651 -5.000,-22.517 -5.500,-23.383 -6.500,-23.383 -7.500,-23.383 -7.000,-22.517 -6.000,-22.517 -6.500,-21.651 -7.500,-21.651 -8.000,-22.517 -9.000,-22.517 -10.000,-22.517 -9.500,-21.651 -8.500,-21.651 -9.000,-20.785 -10.000,-20.785 -10.500,-19.919 -10.000,-19.053 -9.500,-18.187 -9.000,-19.053 -9.500,-19.919 -8.500,-19.919 -8.000,-19.053 -7.000,-19.053 -6.500,-19.919 -7.500,-19.919 -8.000,-20.785 -7.000,-20.785 -6.000,-20.785 -5.500,-19.919 -6.000,-19.053 -5.500,-18.187 -5.000,-19.053 -4.000,-19.053 -4.500,-18.187 -5.000,-17.321 -6.000,-17.321 -6.500,-18.187 -7.500,-18.187 -8.500,-18.187 -8.000,-17.321 -7.000,-17.321 -7.500,-16.454 -8.500,-16.454 -9.000,-17.321 -10.000,-17.321 -9.500,-16.454 -10.000,-15.588 -10.500,-16.454 -11.000,-17.321 -10.500,-18.187 -11.000,-19.053 -12.000,-19.053 -13.000,-19.053 -12.500,-18.187 -11.500,-18.187 -12.000,-17.321 -13.000,-17.321 -13.500,-16.454 -13.000,-15.588 -12.500,-14.722 -12.000,-15.588 -12.500,-16.454 -11.500,-16.454 -11.000,-15.588 -11.500,-14.722 -11.000,-13.856 -10.500,-14.722 -9.500,-14.722 -10.000,-13.856 -10.500,-12.990 -11.500,-12.990 -12.000,-13.856 -13.000,-13.856 -12.500,-12.990 -13.000,-12.124 -13.500,-12.990 -14.000,-13.856 -13.500,-14.722 -14.000,-15.588 -15.000,-15.588 -14.500,-14.722 -15.000,-13.856 -15.500,-14.722 -16.000,-15.588 -15.500,-16.454 -14.500,-16.454 -14.000,-17.321 -13.500,-18.187 -14.500,-18.187 -15.000,-17.321 -15.500,-18.187 -15.000,-19.053 -15.500,-19.919 -16.500,-19.919 -16.000,-19.053 -16.500,-18.187 -17.000,-19.053 -17.500,-19.919 -17.000,-20.785 -17.500,-21.651 -18.500,-21.651 -19.500,-21.651 -19.000,-20.785 -18.000,-20.785 -18.500,-19.919 -19.500,-19.919 -20.000,-20.785 -21.000,-20.785 -22.000,-20.785 -21.500,-19.919 -20.500,-19.919 -21.000,-19.053 -22.000,-19.053 -22.500,-18.187 -22.000,-17.321 -21.500,-16.454 -21.000,-17.321 -21.500,-18.187 -20.500,-18.187 -20.000,-17.321 -19.000,-17.321 -18.500,-18.187 -19.500,-18.187 -20.000,-19.053 -19.000,-19.053 -18.000,-19.053 -17.500,-18.187 -18.000,-17.321 -17.500,-16.454 -17.000,-17.321 -16.000,-17.321 -16.500,-16.454 -17.000,-15.588 -18.000,-15.588 -18.500,-16.454 -19.500,-16.454 -20.500,-16.454 -20.000,-15.588 -19.000,-15.588 -19.500,-14.722 -20.500,-14.722 -21.000,-13.856 -20.500,-12.990 -20.000,-13.856 -19.000,-13.856 -19.500,-12.990 -20.000,-12.124 -21.000,-12.124 -21.500,-11.258 -21.000,-10.392 -20.500,-9.526 -20.000,-10.392 -20.500,-11.258 -19.500,-11.258 -19.000,-10.392 -19.500,-9.526 -19.000,-8.660 -18.500,-7.794 -18.000,-8.660 -18.500,-9.526 -17.500,-9.526 -17.000,-8.660 -16.000,-8.660 -15.500,-9.526 -15.000,-10.392 -16.000,-10.392 -16.500,-9.526 -17.000,-10.392 -16.500,-11.258 -17.000,-12.124 -18.000,-12.124 -17.500,-11.258 -18.000,-10.392 -18.500,-11.258 -19.000,-12.124 -18.500,-12.990 -17.500,-12.990 -17.000,-13.856 -18.000,-13.856 -18.500,-14.722 -17.500,-14.722 -16.500,-14.722 -16.000,-13.856 -16.500,-12.990 -16.000,-12.124 -15.500,-11.258 -15.000,-12.124 -15.500,-12.990 -14.500,-12.990 -14.000,-12.124 -14.500,-11.258 -14.000,-10.392 -13.500,-11.258 -12.500,-11.258 -13.000,-10.392 -13.500,-9.526 -14.500,-9.526 -15.000,-8.660 -14.500,-7.794 -14.000,-6.928 -13.500,-7.794 -14.000,-8.660 -13.000,-8.660 -12.500,-7.794 -11.500,-7.794 -11.000,-8.660 -10.500,-9.526 -11.500,-9.526 -12.000,-8.660 -12.500,-9.526 -12.000,-10.392 -11.000,-10.392 -10.500,-11.258 -11.500,-11.258 -12.000,-12.124 -11.000,-12.124 -10.000,-12.124 -9.500,-11.258 -10.000,-10.392 -9.500,-9.526 -9.000,-10.392 -8.000,-10.392 -8.500,-9.526 -9.000,-8.660 -10.000,-8.660 -10.500,-7.794 -10.000,-6.928 -9.500,-7.794 -8.500,-7.794 -9.000,-6.928 -9.500,-6.062 -10.500,-6.062 -11.000,-6.928 -12.000,-6.928 -13.000,-6.928 -12.500,-6.062 -11.500,-6.062 -12.000,-5.196 -13.000,-5.196 -13.500,-6.062 -14.500,-6.062 -14.000,-5.196 -14.500,-4.330 -15.000,-5.196 -15.500,-6.062 -15.000,-6.928 -15.500,-7.794 -16.500,-7.794 -17.500,-7.794 -17.000,-6.928 -16.000,-6.928 -16.500,-6.062 -17.500,-6.062 -18.000,-5.196 -17.500,-4.330 -17.000,-3.464 -16.500,-4.330 -17.000,-5.196 -16.000,-5.196 -15.500,-4.330 -16.000,-3.464 -15.500,-2.598 -15.000,-3.464 -14.000,-3.464 -14.500,-2.598 -15.000,-1.732 -16.000,-1.732 -16.500,-2.598 -17.500,-2.598 -17.000,-1.732 -17.500,-0.866 -18.000,-1.732 -18.500,-2.598 -18.000,-3.464 -18.500,-4.330 -19.500,-4.330 -19.000,-3.464 -19.500,-2.598 -20.000,-3.464 -20.500,-4.330 -20.000,-5.196 -19.000,-5.196 -18.500,-6.062 -18.000,-6.928 -19.000,-6.928 -19.500,-6.062 -20.000,-6.928 -19.500,-7.794 -20.000,-8.660 -21.000,-8.660 -20.500,-7.794 -21.000,-6.928 -21.500,-7.794 -22.000,-8.660 -21.500,-9.526 -22.000,-10.392 -23.000,-10.392 -24.000,-10.392 -23.500,-9.526 -22.500,-9.526 -23.000,-8.660 -24.000,-8.660 -24.500,-7.794 -24.000,-6.928 -23.500,-6.062 -23.000,-6.928 -23.500,-7.794 -22.500,-7.794 -22.000,-6.928 -22.500,-6.062 -22.000,-5.196 -21.500,-6.062 -20.500,-6.062 -21.000,-5.196 -21.500,-4.330 -22.500,-4.330 -23.000,-5.196 -24.000,-5.196 -23.500,-4.330 -24.000,-3.464 -24.500,-4.330 -25.000,-5.196 -24.500,-6.062 -25.000,-6.928 -26.000,-6.928 -25.500,-6.062 -26.000,-5.196 -26.500,-6.062 -27.000,-6.928 -26.500,-7.794 -25.500,-7.794 -25.000,-8.660 -24.500,-9.526 -25.500,-9.526 -26.000,-8.660 -26.500,-9.526 -26.000,-10.392 -25.000,-10.392 -24.500,-11.258 -25.500,-11.258 -26.000,-12.124 -25.000,-12.124 -24.000,-12.124 -23.500,-11.258 -22.500,-11.258 -22.000,-12.124 -21.500,-12.990 -22.500,-12.990 -23.000,-12.124 -23.500,-12.990 -23.000,-13.856 -22.000,-13.856 -21.500,-14.722 -21.000,-15.588 -22.000,-15.588 -22.500,-14.722 -23.000,-15.588 -22.500,-16.454 -23.000,-17.321 -24.000,-17.321 -25.000,-17.321 -24.500,-16.454 -23.500,-16.454 -24.000,-15.588 -25.000,-15.588 -25.500,-14.722 -25.000,-13.856 -24.500,-14.722 -23.500,-14.722 -24.000,-13.856 -24.500,-12.990 -25.500,-12.990 -26.000,-13.856 -27.000,-13.856 -26.500,-12.990 -27.000,-12.124 -27.500,-12.990 -28.000,-13.856 -27.500,-14.722 -26.500,-14.722 -26.000,-15.588 -25.500,-16.454 -26.500,-16.454 -27.000,-15.588 -27.500,-16.454 -27.000,-17.321 -26.000,-17.321 -25.500,-18.187 -26.500,-18.187 -27.000,-19.053 -26.000,-19.053 -25.000,-19.053 -24.500,-18.187 -23.500,-18.187 -23.000,-19.053 -22.500,-19.919 -23.500,-19.919 -24.000,-19.053 -24.500,-19.919 -24.000,-20.785 -24.500,-21.651 -25.500,-21.651 -26.500,-21.651 -26.000,-20.785 -25.000,-20.785 -25.500,-19.919 -26.500,-19.919 -27.000,-20.785 -28.000,-20.785 -27.500,-19.919 -28.000,-19.053 -28.500,-19.919 -29.000,-20.785 -28.500,-21.651 -27.500,-21.651 -27.000,-22.517 -28.000,-22.517 -28.500,-23.383 -27.500,-23.383 -26.500,-23.383 -26.000,-22.517 -25.000,-22.517 -24.500,-23.383 -25.500,-23.383 -26.000,-24.249 -25.000,-24.249 -24.000,-24.249 -23.500,-23.383 -24.000,-22.517 -23.500,-21.651 -23.000,-20.785 -22.500,-21.651 -23.000,-22.517 -22.000,-22.517 -21.500,-21.651 -20.500,-21.651 -20.000,-22.517 -21.000,-22.517 -21.500,-23.383 -20.500,-23.383 -19.500,-23.383 -19.000,-22.517 -18.000,-22.517 -17.500,-23.383 -17.000,-24.249 -18.000,-24.249 -18.500,-23.383 -19.000,-24.249 -18.500,-25.115 -17.500,-25.115 -17.000,-25.981 -16.500,-26.847 -17.500,-26.847 -18.000,-25.981 -18.500,-26.847 -18.000,-27.713 -18.500,-28.579 -19.500,-28.579 -20.500,-28.579 -20.000,-27.713 -19.000,-27.713 -19.500,-26.847 -20.500,-26.847 -21.000,-25.981 -20.500,-25.115 -20.000,-25.981 -19.000,-25.981 -19.500,-25.115 -20.000,-24.249 -21.000,-24.249 -21.500,-25.115 -22.500,-25.115 -22.000,-24.249 -22.500,-23.383 -23.000,-24.249 -23.500,-25.115 -23.000,-25.981 -22.000,-25.981 -21.500,-26.847 -21.000,-27.713 -22.000,-27.713 -22.500,-26.847 -23.000,-27.713 -22.500,-28.579 -23.000,-29.445 -24.000,-29.445 -23.500,-28.579 -24.000,-27.713 -24.500,-28.579 -25.000,-29.445 -24.500,-30.311 -25.000,-31.177 -26.000,-31.177 -27.000,-31.177 -26.500,-30.311 -25.500,-30.311 -26.000,-29.445 -27.000,-29.445 -27.500,-30.311 -28.500,-30.311 -29.500,-30.311 -29.000,-29.445 -28.000,-29.445 -28.500,-28.579 -29.500,-28.579 -30.000,-27.713 -29.500,-26.847 -29.000,-25.981 -28.500,-26.847 -29.000,-27.713 -28.000,-27.713 -27.500,-26.847 -26.500,-26.847 -26.000,-27.713 -27.000,-27.713 -27.500,-28.579 -26.500,-28.579 -25.500,-28.579 -25.000,-27.713 -25.500,-26.847 -25.000,-25.981 -24.500,-26.847 -23.500,-26.847 -24.000,-25.981 -24.500,-25.115 -25.500,-25.115 -26.000,-25.981 -27.000,-25.981 -28.000,-25.981 -27.500,-25.115 -26.500,-25.115 -27.000,-24.249 -28.000,-24.249 -28.500,-25.115 -29.500,-25.115 -29.000,-24.249 -29.500,-23.383 -30.000,-24.249 -30.500,-25.115 -30.000,-25.981 -30.500,-26.847 -31.500,-26.847 -32.500,-26.847 -32.000,-25.981 -31.000,-25.981 -31.500,-25.115 -32.500,-25.115 -33.000,-24.249 -32.500,-23.383 -32.000,-22.517 -31.500,-23.383 -32.000,-24.249 -31.000,-24.249 -30.500,-23.383 -31.000,-22.517 -30.500,-21.651 -30.000,-22.517 -29.000,-22.517 -29.500,-21.651 -30.000,-20.785 -31.000,-20.785 -31.500,-21.651 -32.500,-21.651 -32.000,-20.785 -32.500,-19.919 -33.000,-20.785 -33.500,-21.651 -33.000,-22.517 -33.500,-23.383 -34.500,-23.383 -34.000,-22.517 -34.500,-21.651 -35.000,-22.517 -35.500,-23.383 -35.000,-24.249 -34.000,-24.249 -33.500,-25.115 -33.000,-25.981 -34.000,-25.981 -34.500,-25.115 -35.000,-25.981 -34.500,-26.847 -33.500,-26.847 -33.000,-27.713 -34.000,-27.713 -34.500,-28.579 -33.500,-28.579 -32.500,-28.579 -32.000,-27.713 -31.000,-27.713 -30.500,-28.579 -30.000,-29.445 -31.000,-29.445 -31.500,-28.579 -32.000,-29.445 -31.500,-30.311 -32.000,-31.177 -33.000,-31.177 -34.000,-31.177 -33.500,-30.311 -32.500,-30.311 -33.000,-29.445 -34.000,-29.445 -34.500,-30.311 -35.500,-30.311 -35.000,-29.445 -35.500,-28.579 -36.000,-29.445 -36.500,-30.311 -36.000,-31.177 -35.000,-31.177 -34.500,-32.043 -35.500,-32.043 -36.000,-32.909 -35.000,-32.909 -34.000,-32.909 -33.500,-32.043 -32.500,-32.043 -32.000,-32.909 -33.000,-32.909 -33.500,-33.775 -32.500,-33.775 -31.500,-33.775 -31.000,-32.909 -31.500,-32.043 -31.000,-31.177 -30.500,-30.311 -30.000,-31.177 -30.500,-32.043 -29.500,-32.043 -29.000,-31.177 -28.000,-31.177 -27.500,-32.043 -28.500,-32.043 -29.000,-32.909 -28.000,-32.909 -27.000,-32.909 -26.500,-32.043 -25.500,-32.043 -25.000,-32.909 -24.500,-33.775 -25.500,-33.775 -26.000,-32.909 -26.500,-33.775 -26.000,-34.641 -26.500,-35.507 -27.500,-35.507 -28.500,-35.507 -28.000,-34.641 -27.000,-34.641 -27.500,-33.775 -28.500,-33.775 -29.000,-34.641 -30.000,-34.641 -29.500,-33.775 -30.000,-32.909 -30.500,-33.775 -31.000,-34.641 -30.500,-35.507 -29.500,-35.507 -29.000,-36.373 -30.000,-36.373 -30.500,-37.239 -29.500,-37.239 -28.500,-37.239 -28.000,-36.373 -27.000,-36.373 -26.500,-37.239 -27.500,-37.239 -28.000,-38.105 -27.000,-38.105 -26.000,-38.105 -25.500,-37.239 -26.000,-36.373 -25.500,-35.507 -25.000,-34.641 -24.500,-35.507 -25.000,-36.373 -24.000,-36.373 -23.500,-35.507 -24.000,-34.641 -23.500,-33.775 -23.000,-34.641 -22.000,-34.641 -22.500,-33.775 -23.000,-32.909 -24.000,-32.909 -24.500,-32.043 -24.000,-31.177 -23.500,-30.311 -23.000,-31.177 -23.500,-32.043 -22.500,-32.043 -22.000,-31.177 -22.500,-30.311 -22.000,-29.445 -21.500,-28.579 -21.000,-29.445 -21.500,-30.311 -20.500,-30.311 -20.000,-29.445 -19.000,-29.445 -18.500,-30.311 -18.000,-31.177 -19.000,-31.177 -19.500,-30.311 -20.000,-31.177 -19.500,-32.043 -20.000,-32.909 -21.000,-32.909 -20.500,-32.043 -21.000,-31.177 -21.500,-32.043 -22.000,-32.909 -21.500,-33.775 -20.500,-33.775 -20.000,-34.641 -21.000,-34.641 -21.500,-35.507 -20.500,-35.507 -19.500,-35.507 -19.000,-34.641 -19.500,-33.775 -19.000,-32.909 -18.500,-32.043 -18.000,-32.909 -18.500,-33.775 -17.500,-33.775 -17.000,-32.909 -16.000,-32.909 -15.500,-33.775 -16.500,-33.775 -17.000,-34.641 -16.000,-34.641 -15.000,-34.641 -14.500,-33.775 -13.500,-33.775 -13.000,-34.641 -12.500,-35.507 -13.500,-35.507 -14.000,-34.641 -14.500,-35.507 -14.000,-36.373 -14.500,-37.239 -15.500,-37.239 -16.500,-37.239 -16.000,-36.373 -15.000,-36.373 -15.500,-35.507 -16.500,-35.507 -17.000,-36.373 -18.000,-36.373 -17.500,-35.507 -18.000,-34.641 -18.500,-35.507 -19.000,-36.373 -18.500,-37.239 -17.500,-37.239 -17.000,-38.105 -18.000,-38.105 -18.500,-38.971 -17.500,-38.971 -16.500,-38.971 -16.000,-38.105 -15.000,-38.105 -14.500,-38.971 -15.500,-38.971 -16.000,-39.837 -15.000,-39.837 -14.000,-39.837 -13.500,-38.971 -14.000,-38.105 -13.500,-37.239 -13.000,-36.373 -12.500,-37.239 -13.000,-38.105 -12.000,-38.105 -11.500,-37.239 -10.500,-37.239 -10.000,-38.105 -11.000,-38.105 -11.500,-38.971 -10.500,-38.971 -9.500,-38.971 -9.000,-38.105 -8.000,-38.105 -7.500,-38.971 -7.000,-39.837 -8.000,-39.837 -8.500,-38.971 -9.000,-39.837 -8.500,-40.703 -7.500,-40.703 -7.000,-41.569 -6.500,-42.435 -7.500,-42.435 -8.000,-41.569 -8.500,-42.435 -8.000,-43.301 -8.500,-44.167 -9.500,-44.167 -10.500,-44.167 -10.000,-43.301 -9.000,-43.301 -9.500,-42.435 -10.500,-42.435 -11.000,-41.569 -10.500,-40.703 -10.000,-41.569 -9.000,-41.569 -9.500,-40.703 -10.000,-39.837 -11.000,-39.837 -11.500,-40.703 -12.500,-40.703 -12.000,-39.837 -12.500,-38.971 -13.000,-39.837 -13.500,-40.703 -13.000,-41.569 -12.000,-41.569 -11.500,-42.435 -11.000,-43.301 -12.000,-43.301 -12.500,-42.435 -13.000,-43.301 -12.500,-44.167 -13.000,-45.033 -14.000,-45.033 -13.500,-44.167 -14.000,-43.301 -14.500,-44.167 -15.000,-45.033 -14.500,-45.899 -15.000,-46.765 -16.000,-46.765 -17.000,-46.765 -16.500,-45.899 -15.500,-45.899 -16.000,-45.033 -17.000,-45.033 -17.500,-45.899 -18.500,-45.899 -19.500,-45.899 -19.000,-45.033 -18.000,-45.033 -18.500,-44.167 -19.500,-44.167 -20.000,-43.301 -19.500,-42.435 -19.000,-41.569 -18.500,-42.435 -19.000,-43.301 -18.000,-43.301 -17.500,-42.435 -16.500,-42.435 -16.000,-43.301 -17.000,-43.301 -17.500,-44.167 -16.500,-44.167 -15.500,-44.167 -15.000,-43.301 -15.500,-42.435 -15.000,-41.569 -14.500,-42.435 -13.500,-42.435 -14.000,-41.569 -14.500,-40.703 -15.500,-40.703 -16.000,-41.569 -17.000,-41.569 -18.000,-41.569 -17.500,-40.703 -16.500,-40.703 -17.000,-39.837 -18.000,-39.837 -18.500,-40.703 -19.500,-40.703 -19.000,-39.837 -19.500,-38.971 -20.000,-39.837 -20.500,-40.703 -20.000,-41.569 -20.500,-42.435 -21.500,-42.435 -22.500,-42.435 -22.000,-41.569 -21.000,-41.569 -21.500,-40.703 -22.500,-40.703 -23.000,-39.837 -22.500,-38.971 -22.000,-38.105 -21.500,-38.971 -22.000,-39.837 -21.000,-39.837 -20.500,-38.971 -21.000,-38.105 -20.500,-37.239 -20.000,-38.105 -19.000,-38.105 -19.500,-37.239 -20.000,-36.373 -21.000,-36.373 -21.500,-37.239 -22.500,-37.239 -22.000,-36.373 -22.500,-35.507 -23.000,-36.373 -23.500,-37.239 -23.000,-38.105 -23.500,-38.971 -24.500,-38.971 -24.000,-38.105 -24.500,-37.239 -25.000,-38.105 -25.500,-38.971 -25.000,-39.837 -24.000,-39.837 -23.500,-40.703 -23.000,-41.569 -24.000,-41.569 -24.500,-40.703 -25.000,-41.569 -24.500,-42.435 -23.500,-42.435 -23.000,-43.301 -24.000,-43.301 -24.500,-44.167 -23.500,-44.167 -22.500,-44.167 -22.000,-43.301 -21.000,-43.301 -20.500,-44.167 -20.000,-45.033 -21.000,-45.033 -21.500,-44.167 -22.000,-45.033 -21.500,-45.899 -22.000,-46.765 -23.000,-46.765 -24.000,-46.765 -23.500,-45.899 -22.500,-45.899 -23.000,-45.033 -24.000,-45.033 -24.500,-45.899 -25.500,-45.899 -25.000,-45.033 -25.500,-44.167 -26.000,-45.033 -26.500,-45.899 -26.000,-46.765 -25.000,-46.765 -24.500,-47.631 -25.500,-47.631 -26.000,-48.497 -25.000,-48.497 -24.000,-48.497 -23.500,-47.631 -22.500,-47.631 -22.000,-48.497 -23.000,-48.497 -23.500,-49.363 -22.500,-49.363 -21.500,-49.363 -21.000,-48.497 -21.500,-47.631 -21.000,-46.765 -20.500,-45.899 -20.000,-46.765 -20.500,-47.631 -19.500,-47.631 -19.000,-46.765 -18.000,-46.765 -17.500,-47.631 -18.500,-47.631 -19.000,-48.497 -18.000,-48.497 -17.000,-48.497 -16.500,-47.631 -15.500,-47.631 -15.000,-48.497 -14.500,-49.363 -15.500,-49.363 -16.000,-48.497 -16.500,-49.363 -16.000,-50.229 -16.500,-51.095 -17.500,-51.095 -18.500,-51.095 -18.000,-50.229 -17.000,-50.229 -17.500,-49.363 -18.500,-49.363 -19.000,-50.229 -20.000,-50.229 -19.500,-49.363 -20.000,-48.497 -20.500,-49.363 -21.000,-50.229 -20.500,-51.095 -19.500,-51.095 -19.000,-51.962 -20.000,-51.962 -20.500,-52.828 -19.500,-52.828 -18.500,-52.828 -18.000,-51.962 -17.000,-51.962 -16.500,-52.828 -17.500,-52.828 -18.000,-53.694 -17.000,-53.694 -16.000,-53.694 -15.500,-52.828 -16.000,-51.962 -15.500,-51.095 -15.000,-50.229 -14.500,-51.095 -15.000,-51.962 -14.000,-51.962 -13.500,-51.095 -14.000,-50.229 -13.500,-49.363 -13.000,-50.229 -12.000,-50.229 -12.500,-49.363 -13.000,-48.497 -14.000,-48.497 -14.500,-47.631 -14.000,-46.765 -13.500,-45.899 -13.000,-46.765 -13.500,-47.631 -12.500,-47.631 -12.000,-46.765 -12.500,-45.899 -12.000,-45.033 -11.500,-44.167 -11.000,-45.033 -11.500,-45.899 -10.500,-45.899 -10.000,-45.033 -9.000,-45.033 -8.500,-45.899 -8.000,-46.765 -9.000,-46.765 -9.500,-45.899 -10.000,-46.765 -9.500,-47.631 -10.000,-48.497 -11.000,-48.497 -10.500,-47.631 -11.000,-46.765 -11.500,-47.631 -12.000,-48.497 -11.500,-49.363 -10.500,-49.363 -10.000,-50.229 -11.000,-50.229 -11.500,-51.095 -10.500,-51.095 -9.500,-51.095 -9.000,-50.229 -9.500,-49.363 -9.000,-48.497 -8.500,-47.631 -8.000,-48.497 -8.500,-49.363 -7.500,-49.363 -7.000,-48.497 -7.500,-47.631 -7.000,-46.765 -6.500,-47.631 -5.500,-47.631 -6.000,-46.765 -6.500,-45.899 -7.500,-45.899 -8.000,-45.033 -7.500,-44.167 -7.000,-43.301 -6.500,-44.167 -7.000,-45.033 -6.000,-45.033 -5.500,-44.167 -4.500,-44.167 -4.000,-45.033 -3.500,-45.899 -4.500,-45.899 -5.000,-45.033 -5.500,-45.899 -5.000,-46.765 -4.000,-46.765 -3.500,-47.631 -4.500,-47.631 -5.000,-48.497 -4.000,-48.497 -3.000,-48.497 -2.500,-47.631 -3.000,-46.765 -2.500,-45.899 -2.000,-46.765 -1.000,-46.765 -1.500,-45.899 -2.000,-45.033 -3.000,-45.033 -3.500,-44.167 -3.000,-43.301 -2.500,-44.167 -1.500,-44.167 -2.000,-43.301 -2.500,-42.435 -3.500,-42.435 -4.000,-43.301 -5.000,-43.301 -6.000,-43.301 -5.500,-42.435 -4.500,-42.435 -5.000,-41.569 -6.000,-41.569 -6.500,-40.703 -6.000,-39.837 -5.500,-40.703 -4.500,-40.703 -5.000,-39.837 -5.500,-38.971 -6.500,-38.971 -7.000,-38.105 -6.500,-37.239 -6.000,-36.373 -5.500,-37.239 -6.000,-38.105 -5.000,-38.105 -4.500,-37.239 -5.000,-36.373 -4.500,-35.507 -4.000,-34.641 -3.500,-35.507 -4.000,-36.373 -3.000,-36.373 -2.500,-35.507 -1.500,-35.507 -1.000,-36.373 -0.500,-37.239 -1.500,-37.239 -2.000,-36.373 -2.500,-37.239 -2.000,-38.105 -2.500,-38.971 -3.500,-38.971 -3.000,-38.105 -3.500,-37.239 -4.000,-38.105 -4.500,-38.971 -4.000,-39.837 -3.000,-39.837 -2.500,-40.703 -3.500,-40.703 -4.000,-41.569 -3.000,-41.569 -2.000,-41.569 -1.500,-40.703 -2.000,-39.837 -1.500,-38.971 -1.000,-38.105 -0.500,-38.971 -1.000,-39.837 -0.000,-39.837 0.500,-38.971 -0.000,-38.105 0.500,-37.239 1.000,-38.105 2.000,-38.105 1.500,-37.239 1.000,-36.373 -0.000,-36.373 -0.500,-35.507 -0.000,-34.641 0.500,-33.775 1.000,-34.641 0.500,-35.507 1.500,-35.507 2.000,-34.641 1.500,-33.775 2.000,-32.909 2.500,-32.043 3.000,-32.909 2.500,-33.775 3.500,-33.775 4.000,-32.909 5.000,-32.909 5.500,-33.775 6.000,-34.641 5.000,-34.641 4.500,-33.775 4.000,-34.641 4.500,-35.507 4.000,-36.373 3.000,-36.373 3.500,-35.507 3.000,-34.641 2.500,-35.507 2.000,-36.373 2.500,-37.239 3.500,-37.239 4.000,-38.105 3.000,-38.105 2.500,-38.971 3.500,-38.971 4.500,-38.971 5.000,-38.105 4.500,-37.239 5.000,-36.373 5.500,-35.507 6.000,-36.373 5.500,-37.239 6.500,-37.239 7.000,-36.373 8.000,-36.373 8.500,-37.239 7.500,-37.239 7.000,-38.105 8.000,-38.105 9.000,-38.105 9.500,-37.239 10.500,-37.239 11.000,-38.105 11.500,-38.971 10.500,-38.971 10.000,-38.105 9.500,-38.971 10.000,-39.837 11.000,-39.837 11.500,-40.703 12.000,-41.569 11.000,-41.569 10.500,-40.703 10.000,-41.569 10.500,-42.435 10.000,-43.301 9.000,-43.301 8.000,-43.301 8.500,-42.435 9.500,-42.435 9.000,-41.569 8.000,-41.569 7.500,-40.703 8.000,-39.837 8.500,-40.703 9.500,-40.703 9.000,-39.837 8.500,-38.971 7.500,-38.971 7.000,-39.837 6.000,-39.837 6.500,-38.971 6.000,-38.105 5.500,-38.971 5.000,-39.837 5.500,-40.703 6.500,-40.703 7.000,-41.569 7.500,-42.435 6.500,-42.435 6.000,-41.569 5.500,-42.435 6.000,-43.301 5.500,-44.167 4.500,-44.167 5.000,-43.301 4.500,-42.435 4.000,-43.301 3.500,-44.167 4.000,-45.033 3.500,-45.899 2.500,-45.899 1.500,-45.899 2.000,-45.033 3.000,-45.033 2.500,-44.167 1.500,-44.167 1.000,-43.301 1.500,-42.435 2.000,-41.569 2.500,-42.435 2.000,-43.301 3.000,-43.301 3.500,-42.435 3.000,-41.569 3.500,-40.703 4.000,-41.569 5.000,-41.569 4.500,-40.703 4.000,-39.837 3.000,-39.837 2.500,-40.703 1.500,-40.703 2.000,-39.837 1.500,-38.971 1.000,-39.837 0.500,-40.703 1.000,-41.569 0.500,-42.435 -0.500,-42.435 -0.000,-41.569 -0.500,-40.703 -1.000,-41.569 -1.500,-42.435 -1.000,-43.301 -0.000,-43.301 0.500,-44.167 1.000,-45.033 -0.000,-45.033 -0.500,-44.167 -1.000,-45.033 -0.500,-45.899 0.500,-45.899 1.000,-46.765 -0.000,-46.765 -0.500,-47.631 0.500,-47.631 1.500,-47.631 2.000,-46.765 3.000,-46.765 3.500,-47.631 4.000,-48.497 3.000,-48.497 2.500,-47.631 2.000,-48.497 2.500,-49.363 2.000,-50.229 1.000,-50.229 -0.000,-50.229 0.500,-49.363 1.500,-49.363 1.000,-48.497 -0.000,-48.497 -0.500,-49.363 -1.500,-49.363 -1.000,-48.497 -1.500,-47.631 -2.000,-48.497 -2.500,-49.363 -2.000,-50.229 -1.000,-50.229 -0.500,-51.095 -1.500,-51.095 -2.000,-51.962 -1.000,-51.962 -0.000,-51.962 0.500,-51.095 1.500,-51.095 2.000,-51.962 1.000,-51.962 0.500,-52.828 1.500,-52.828 2.500,-52.828 3.000,-51.962 2.500,-51.095 3.000,-50.229 3.500,-49.363 4.000,-50.229 3.500,-51.095 4.500,-51.095 5.000,-50.229 4.500,-49.363 5.000,-48.497 5.500,-49.363 6.500,-49.363 6.000,-48.497 5.500,-47.631 4.500,-47.631 4.000,-46.765 4.500,-45.899 5.000,-45.033 5.500,-45.899 5.000,-46.765 6.000,-46.765 6.500,-45.899 6.000,-45.033 6.500,-44.167 7.000,-43.301 7.500,-44.167 7.000,-45.033 8.000,-45.033 8.500,-44.167 9.500,-44.167 10.000,-45.033 10.500,-45.899 9.500,-45.899 9.000,-45.033 8.500,-45.899 9.000,-46.765 8.500,-47.631 7.500,-47.631 8.000,-46.765 7.500,-45.899 7.000,-46.765 6.500,-47.631 7.000,-48.497 8.000,-48.497 8.500,-49.363 7.500,-49.363 7.000,-50.229 8.000,-50.229 9.000,-50.229 9.500,-49.363 9.000,-48.497 9.500,-47.631 10.000,-46.765 10.500,-47.631 10.000,-48.497 11.000,-48.497 11.500,-47.631"/></svg>