<svg version="1.1" xmlns="http://www.w3.org/2000/svg" xmlns:xlink="http://www.w3.org/1999/xlink" xmlns:inkscape="http://www.inkscape.org/namespaces/inkscape" width="600" height="600" viewBox="-0.000 0 81.000 70.148" fill="none" stroke="#00f" stroke-width="0.250"><polyline fill="none" points="0,0 1,0 1.500,0.866 2,0 3,0 3.500,0.866 3,1.732 4,1.732 4.500,2.598 5,1.732 6,1.732 5.500,0.866 6,0.000 7,0.000 7.500,0.866 8,0.000 9,0.000 9.500,0.866 9,1.732 10,1.732 10.500,2.598 10,3.464 9,3.464 9.500,4.330 9,5.196 10,5.196 10.500,6.062 11,5.196 12,5.196 12.500,6.062 12,6.928 13,6.928 13.500,7.794 14,6.928 15,6.928 14.500,6.062 15,5.196 16,5.196 16.500,6.062 17,5.196 18,5.196 17.500,4.330 18,3.464 17,3.464 16.500,2.598 17,1.732 18,1.732 17.500,0.866 18,0.000 19,0.000 19.500,0.866 20,0.000 21,0.000 21.500,0.866 21,1.732 22,1.732 22.500,2.598 23,1.732 24,1.732 23.500,0.866 24,0.000 25,0.000 25.500,0.866 26,0.000 27,0.000 27.500,0.866 27,1.732 28,1.732 28.500,2.598 28,3.464 27,3.464 27.500,4.330 27,5.196 28,5.196 28.500,6.062 29,5.196 30,5.196 30.500,6.062 30,6.928 31,6.928 31.500,7.794 31,8.660 30,8.660 30.500,9.526 30,10.392 29,10.392 28.500,9.526 28,10.392 27,10.392 27.500,11.258 27,12.124 28,12.124 28.500,12.990 28,13.856 27,13.856 27.500,14.722 27,15.588 28,15.588 28.500,16.454 29,15.588 30,15.588 30.500,16.454 30,17.321 31,17.321 31.500,18.187 32,17.321 33,17.321 32.500,16.454 33,15.588 34,15.588 34.500,16.454 35,15.588 36,15.588 36.500,16.454 36,17.321 37,17.321 37.500,18.187 37,19.053 36,19.053 36.500,19.919 36,20.785 37,20.785 37.500,21.651 38,20.785 39,20.785 39.500,21.651 39,22.517 40,22.517 40.500,23.383 41,22.517 42,22.517 41.500,21.651 42,20.785 43,20.785 43.500,21.651 44,20.785 45,20.785 44.500,19.919 45,19.053 44,19.053 43.500,18.187 44,17.321 45,17.321 44.500,16.454 45,15.588 46,15.588 46.500,16.454 47,15.588 48,15.588 48.500,16.454 48,17.321 49,17.321 49.500,18.187 50,17.321 51,17.321 50.500,16.454 51,15.588 52,15.588 52.500,16.454 53,15.588 54,15.588 53.500,14.722 54,13.856 53,13.856 52.500,12.990 53,12.124 54,12.124 53.500,11.258 54,10.392 53,10.392 52.500,9.526 52,10.392 51,10.392 50.500,9.526 51,8.660 50,8.660 49.500,7.794 50,6.928 51,6.928 50.500,6.062 51,5.196 52,5.196 52.500,6.062 53,5.196 54,5.196 53.500,4.330 54,3.464 53,3.464 52.500,2.598 53,1.732 54,1.732 53.500,0.866 54,0.000 55,0.000 55.500,0.866 56,0.000 57,0.000 57.500,0.866 57,1.732 58,1.732 58.500,2.598 59,1.732 60,1.732 59.500,0.866 60,0.000 61,0.000 61.500,0.866 62,0.000 63,0.000 63.500,0.866 63,1.732 64,1.732 64.500,2.598 64,3.464 63,3.464 63.500,4.330 63,5.196 64,5.196 64.500,6.062 65,5.196 66,5.196 66.500,6.062 66,6.928 67,6.928 67.500,7.794 68,6.928 69,6.928 68.500,6.062 69,5.196 70,5.196 70.500,6.062 71,5.196 72,5.196 71.500,4.330 72,3.464 71,3.464 70.500,2.598 71,1.732 72,1.732 71.500,0.866 72,0.000 73,0.000 73.500,0.866 74,0.000 75,0.000 75.500,0.866 75,1.732 76,1.732 76.500,2.598 77,1.732 78,1.732 77.500,0.866 78,0.000 79,0.000 79.500,0.866 80,0.000 81,0.000 80.500,0.866 79.500,0.866 80,1.732 79.500,2.598 78.500,2.598 78,1.732 77.500,2.598 76.500,2.598 77,3.464 76.500,4.330 77.500,4.330 78,5.196 77.500,6.062 76.500,6.062 77,6.928 76.500,7.794 75.500,7.794 75,6.928 74.500,7.794 73.500,7.794 73,6.928 73.500,6.062 72.500,6.062 72,5.196 71.500,6.062 70.500,6.062 71,6.928 70.500,7.794 69.500,7.794 69,6.928 68.500,7.794 67.500,7.794 68,8.660 67.500,9.526 68.500,9.526 69,10.392 68.500,11.258 67.500,11.258 68,12.124 67.500,12.990 68.500,12.990 69,13.856 69.500,12.990 70.500,12.990 71,13.856 70.500,14.722 71.500,14.722 72,15.588 71.500,16.454 70.500,16.454 71,17.321 70.500,18.187 69.500,18.187 69,17.321 68.500,18.187 67.500,18.187 68,19.053 67.500,19.919 68.500,19.919 69,20.785 68.500,21.651 67.500,21.651 68,22.517 67.500,23.383 66.500,23.383 66,22.517 65.500,23.383 64.500,23.383 64,22.517 64.500,21.651 63.500,21.651 63,20.785 62.500,21.651 61.500,21.651 62,22.517 61.500,23.383 60.500,23.383 60,22.517 59.500,23.383 58.500,23.383 58,22.517 58.500,21.651 57.500,21.651 57,20.785 57.500,19.919 58.500,19.919 58,19.053 58.500,18.187 57.500,18.187 57,17.321 56.500,18.187 55.500,18.187 55,17.321 55.500,16.454 54.500,16.454 54,15.588 53.500,16.454 52.500,16.454 53,17.321 52.500,18.187 51.500,18.187 51,17.321 50.500,18.187 49.500,18.187 50,19.053 49.500,19.919 50.500,19.919 51,20.785 50.500,21.651 49.500,21.651 50,22.517 49.500,23.383 48.500,23.383 48,22.517 47.500,23.383 46.500,23.383 46,22.517 46.500,21.651 45.500,21.651 45,20.785 44.500,21.651 43.500,21.651 44,22.517 43.500,23.383 42.500,23.383 42,22.517 41.500,23.383 40.500,23.383 41,24.249 40.500,25.115 41.500,25.115 42,25.981 41.500,26.847 40.500,26.847 41,27.713 40.500,28.579 41.500,28.579 42,29.445 42.500,28.579 43.500,28.579 44,29.445 43.500,30.311 44.500,30.311 45,31.177 44.500,32.043 43.500,32.043 44,32.909 43.500,33.775 42.500,33.775 42,32.909 41.500,33.775 40.500,33.775 41,34.641 40.500,35.507 41.500,35.507 42,36.373 41.500,37.239 40.500,37.239 41,38.105 40.500,38.971 41.500,38.971 42,39.837 42.500,38.971 43.500,38.971 44,39.837 43.500,40.703 44.500,40.703 45,41.569 45.500,40.703 46.500,40.703 46,39.837 46.500,38.971 47.500,38.971 48,39.837 48.500,38.971 49.500,38.971 50,39.837 49.500,40.703 50.500,40.703 51,41.569 50.500,42.435 49.500,42.435 50,43.301 49.500,44.167 50.500,44.167 51,45.033 51.500,44.167 52.500,44.167 53,45.033 52.500,45.899 53.500,45.899 54,46.765 53.500,47.631 52.500,47.631 53,48.497 52.500,49.363 51.500,49.363 51,48.497 50.500,49.363 49.500,49.363 50,50.229 49.500,51.095 50.500,51.095 51,51.962 50.500,52.828 49.500,52.828 50,53.694 49.500,54.560 48.500,54.560 48,53.694 47.500,54.560 46.500,54.560 46,53.694 46.500,52.828 45.500,52.828 45,51.962 44.500,52.828 43.500,52.828 44,53.694 43.500,54.560 42.500,54.560 42,53.694 41.500,54.560 40.500,54.560 41,55.426 40.500,56.292 41.500,56.292 42,57.158 41.500,58.024 40.500,58.024 41,58.890 40.500,59.756 41.500,59.756 42,60.622 42.500,59.756 43.500,59.756 44,60.622 43.500,61.488 44.500,61.488 45,62.354 44.500,63.220 43.500,63.220 44,64.086 43.500,64.952 42.500,64.952 42,64.086 41.500,64.952 40.500,64.952 41,65.818 40.500,66.684 41.500,66.684 42,67.550 41.500,68.416 40.500,68.416 41,69.282 40.500,70.148 40,69.282 40.500,68.416 39.500,68.416 39,67.550 39.500,66.684 40.500,66.684 40,65.818 40.500,64.952 39.500,64.952 39,64.086 38.500,64.952 37.500,64.952 37,64.086 37.500,63.220 36.500,63.220 36,62.354 36.500,61.488 37.500,61.488 37,60.622 37.500,59.756 38.500,59.756 39,60.622 39.500,59.756 40.500,59.756 40,58.890 40.500,58.024 39.500,58.024 39,57.158 39.500,56.292 40.500,56.292 40,55.426 40.500,54.560 39.500,54.560 39,53.694 38.500,54.560 37.500,54.560 37,53.694 37.500,52.828 36.500,52.828 36,51.962 35.500,52.828 34.500,52.828 35,53.694 34.500,54.560 33.500,54.560 33,53.694 32.500,54.560 31.500,54.560 31,53.694 31.500,52.828 30.500,52.828 30,51.962 30.500,51.095 31.500,51.095 31,50.229 31.500,49.363 30.500,49.363 30,48.497 29.500,49.363 28.500,49.363 28,48.497 28.500,47.631 27.500,47.631 27,46.765 27.500,45.899 28.500,45.899 28,45.033 28.500,44.167 29.500,44.167 30,45.033 30.500,44.167 31.500,44.167 31,43.301 31.500,42.435 30.500,42.435 30,41.569 30.500,40.703 31.500,40.703 31,39.837 31.500,38.971 32.500,38.971 33,39.837 33.500,38.971 34.500,38.971 35,39.837 34.500,40.703 35.500,40.703 36,41.569 36.500,40.703 37.500,40.703 37,39.837 37.500,38.971 38.500,38.971 39,39.837 39.500,38.971 40.500,38.971 40,38.105 40.500,37.239 39.500,37.239 39,36.373 39.500,35.507 40.500,35.507 40,34.641 40.500,33.775 39.500,33.775 39,32.909 38.500,33.775 37.500,33.775 37,32.909 37.500,32.043 36.500,32.043 36,31.177 36.500,30.311 37.500,30.311 37,29.445 37.500,28.579 38.500,28.579 39,29.445 39.500,28.579 40.500,28.579 40,27.713 40.500,26.847 39.500,26.847 39,25.981 39.500,25.115 40.500,25.115 40,24.249 40.500,23.383 39.500,23.383 39,22.517 38.500,23.383 37.500,23.383 37,22.517 37.500,21.651 36.500,21.651 36,20.785 35.500,21.651 34.500,21.651 35,22.517 34.500,23.383 33.500,23.383 33,22.517 32.500,23.383 31.500,23.383 31,22.517 31.500,21.651 30.500,21.651 30,20.785 30.500,19.919 31.500,19.919 31,19.053 31.500,18.187 30.500,18.187 30,17.321 29.500,18.187 28.500,18.187 28,17.321 28.500,16.454 27.500,16.454 27,15.588 26.500,16.454 25.500,16.454 26,17.321 25.500,18.187 24.500,18.187 24,17.321 23.500,18.187 22.500,18.187 23,19.053 22.500,19.919 23.500,19.919 24,20.785 23.500,21.651 22.500,21.651 23,22.517 22.500,23.383 21.500,23.383 21,22.517 20.500,23.383 19.500,23.383 19,22.517 19.500,21.651 18.500,21.651 18,20.785 17.500,21.651 16.500,21.651 17,22.517 16.500,23.383 15.500,23.383 15,22.517 14.500,23.383 13.500,23.383 13.000,22.517 13.500,21.651 12.500,21.651 12.000,20.785 12.500,19.919 13.500,19.919 13.000,19.053 13.500,18.187 12.500,18.187 12.000,17.321 11.500,18.187 10.500,18.187 10.000,17.321 10.500,16.454 9.500,16.454 9.000,15.588 9.500,14.722 10.500,14.722 10.000,13.856 10.500,12.990 11.500,12.990 12.000,13.856 12.500,12.990 13.500,12.990 13.000,12.124 13.500,11.258 12.500,11.258 12.000,10.392 12.500,9.526 13.500,9.526 13.000,8.660 13.500,7.794 12.500,7.794 12.000,6.928 11.500,7.794 10.500,7.794 10.000,6.928 10.500,6.062 9.500,6.062 9.000,5.196 8.500,6.062 7.500,6.062 8.000,6.928 7.500,7.794 6.500,7.794 6.000,6.928 5.500,7.794 4.500,7.794 4.000,6.928 4.500,6.062 3.500,6.062 3.000,5.196 3.500,4.330 4.500,4.330 4.000,3.464 4.500,2.598 3.500,2.598 3.000,1.732 2.500,2.598 1.500,2.598 1.000,1.732 1.500,0.866 0.500,0.866 -0.000,0.000"/></svg>